<svg width="32" height="32" viewBox="0 0 32 32" fill="none" xmlns="http://www.w3.org/2000/svg">
<rect width="32" height="32" rx="4" fill="url(#paint0_angular_214_36)"/>
<rect width="32" height="32" rx="4" fill="url(#paint1_radial_214_36)"/>
<rect x="0.5" y="0.5" width="31" height="31" rx="3.5" stroke="black" stroke-opacity="0.15"/>
<mask id="path-3-outside-1_214_36" maskUnits="userSpaceOnUse" x="4" y="6" width="25" height="20" fill="black">
<rect fill="white" x="4" y="6" width="25" height="20"/>
<path fill-rule="evenodd" clip-rule="evenodd" d="M7.49229 21.6006C7.94608 21.8669 8.44787 22 8.99766 22C9.54745 22 10.0492 21.8669 10.503 21.6006C10.9568 21.3299 11.319 20.9676 11.5895 20.5136C11.8644 20.0552 12.0019 19.5532 12.0019 19.0075V17.6389H14.0112V19.0075C14.0112 19.5532 14.1443 20.0552 14.4105 20.5136C14.681 20.9676 15.0432 21.3299 15.497 21.6006C15.9508 21.8669 16.4547 22 17.0089 22C17.5587 22 18.0583 21.8669 18.5077 21.6006C18.9615 21.3299 19.3237 20.9676 19.5942 20.5136C19.8647 20.0552 20 19.5532 20 19.0075C20 18.4531 19.8647 17.9489 19.5942 17.4949C19.3237 17.0408 18.9615 16.6785 18.5077 16.4079C18.0583 16.1372 17.5587 16.0019 17.0089 16.0019H15.654V13.985H17.0089C17.5587 13.985 18.0583 13.8519 18.5077 13.5856C18.9615 13.3149 19.3237 12.9548 19.5942 12.5051C19.8647 12.0511 20 11.5469 20 10.9925C20 10.4425 19.8647 9.94044 19.5942 9.48644C19.328 9.03243 18.9681 8.67228 18.5143 8.40599C18.0605 8.13533 17.5587 8 17.0089 8C16.4547 8 15.9508 8.13533 15.497 8.40599C15.0432 8.67228 14.681 9.03243 14.4105 9.48644C14.1443 9.94044 14.0112 10.4425 14.0112 10.9925V12.348H12.0019V10.9925C12.0019 10.4425 11.8644 9.94044 11.5895 9.48644C11.319 9.03243 10.9568 8.67228 10.503 8.40599C10.0492 8.13533 9.54745 8 8.99766 8C8.44787 8 7.94608 8.13533 7.49229 8.40599C7.03849 8.67228 6.67633 9.03243 6.4058 9.48644C6.13527 9.94044 6 10.4425 6 10.9925C6 11.5469 6.13527 12.0511 6.4058 12.5051C6.67633 12.9548 7.03849 13.3149 7.49229 13.5856C7.94608 13.8519 8.44787 13.985 8.99766 13.985H10.359V16.0019H8.99766C8.44787 16.0019 7.94608 16.1372 7.49229 16.4079C7.03849 16.6785 6.67633 17.0408 6.4058 17.4949C6.13527 17.9489 6 18.4531 6 19.0075C6 19.5532 6.13527 20.0552 6.4058 20.5136C6.67633 20.9676 7.03849 21.3299 7.49229 21.6006ZM9.67835 20.1796C9.47327 20.3018 9.24638 20.363 8.99766 20.363C8.74895 20.363 8.51987 20.3018 8.31043 20.1796C8.10535 20.0574 7.94172 19.8937 7.81954 19.6885C7.70173 19.4833 7.64282 19.2563 7.64282 19.0075C7.64282 18.7543 7.70391 18.5251 7.82609 18.3199C7.94826 18.1147 8.11189 17.951 8.31697 17.8288C8.52205 17.7022 8.74895 17.6389 8.99766 17.6389H10.359V19.0075C10.359 19.2563 10.298 19.4833 10.1758 19.6885C10.0536 19.8937 9.8878 20.0574 9.67835 20.1796ZM10.359 12.348H8.99766C8.74895 12.348 8.51987 12.2891 8.31043 12.1712C8.10535 12.049 7.94172 11.8853 7.81954 11.6801C7.70173 11.4705 7.64282 11.2413 7.64282 10.9925C7.64282 10.7393 7.70391 10.5123 7.82609 10.3115C7.94826 10.1063 8.11189 9.94263 8.31697 9.82039C8.52205 9.69816 8.74895 9.63704 8.99766 9.63704C9.24638 9.63704 9.47327 9.69816 9.67835 9.82039C9.8878 9.94263 10.0536 10.1063 10.1758 10.3115C10.298 10.5123 10.359 10.7393 10.359 10.9925V12.348ZM17.0089 12.348H15.654V10.9925C15.654 10.7393 15.7129 10.5123 15.8308 10.3115C15.9529 10.1063 16.1166 9.94263 16.3216 9.82039C16.5267 9.69816 16.7558 9.63704 17.0089 9.63704C17.2576 9.63704 17.4845 9.69816 17.6896 9.82039C17.8947 9.94263 18.0561 10.1063 18.1739 10.3115C18.2961 10.5123 18.3572 10.7393 18.3572 10.9925C18.3572 11.2457 18.2961 11.4749 18.1739 11.6801C18.0561 11.8853 17.8947 12.049 17.6896 12.1712C17.4845 12.2891 17.2576 12.348 17.0089 12.348ZM17.6896 20.1796C17.4845 20.3018 17.2576 20.363 17.0089 20.363C16.7558 20.363 16.5267 20.3018 16.3216 20.1796C16.1166 20.0574 15.9529 19.8937 15.8308 19.6885C15.7129 19.4833 15.654 19.2563 15.654 19.0075V17.6389H17.0089C17.2576 17.6389 17.4845 17.7022 17.6896 17.8288C17.8947 17.951 18.0561 18.1147 18.1739 18.3199C18.2961 18.5251 18.3572 18.7543 18.3572 19.0075C18.3572 19.2563 18.2961 19.4833 18.1739 19.6885C18.0561 19.8937 17.8947 20.0574 17.6896 20.1796ZM14.0112 16.0019H12.0019V13.985H14.0112V16.0019ZM22.8915 23.9941L27.1966 8H25.1288L20.8237 23.9941H22.8915Z"/>
</mask>
<path fill-rule="evenodd" clip-rule="evenodd" d="M7.49229 21.6006C7.94608 21.8669 8.44787 22 8.99766 22C9.54745 22 10.0492 21.8669 10.503 21.6006C10.9568 21.3299 11.319 20.9676 11.5895 20.5136C11.8644 20.0552 12.0019 19.5532 12.0019 19.0075V17.6389H14.0112V19.0075C14.0112 19.5532 14.1443 20.0552 14.4105 20.5136C14.681 20.9676 15.0432 21.3299 15.497 21.6006C15.9508 21.8669 16.4547 22 17.0089 22C17.5587 22 18.0583 21.8669 18.5077 21.6006C18.9615 21.3299 19.3237 20.9676 19.5942 20.5136C19.8647 20.0552 20 19.5532 20 19.0075C20 18.4531 19.8647 17.9489 19.5942 17.4949C19.3237 17.0408 18.9615 16.6785 18.5077 16.4079C18.0583 16.1372 17.5587 16.0019 17.0089 16.0019H15.654V13.985H17.0089C17.5587 13.985 18.0583 13.8519 18.5077 13.5856C18.9615 13.3149 19.3237 12.9548 19.5942 12.5051C19.8647 12.0511 20 11.5469 20 10.9925C20 10.4425 19.8647 9.94044 19.5942 9.48644C19.328 9.03243 18.9681 8.67228 18.5143 8.40599C18.0605 8.13533 17.5587 8 17.0089 8C16.4547 8 15.9508 8.13533 15.497 8.40599C15.0432 8.67228 14.681 9.03243 14.4105 9.48644C14.1443 9.94044 14.0112 10.4425 14.0112 10.9925V12.348H12.0019V10.9925C12.0019 10.4425 11.8644 9.94044 11.5895 9.48644C11.319 9.03243 10.9568 8.67228 10.503 8.40599C10.0492 8.13533 9.54745 8 8.99766 8C8.44787 8 7.94608 8.13533 7.49229 8.40599C7.03849 8.67228 6.67633 9.03243 6.4058 9.48644C6.13527 9.94044 6 10.4425 6 10.9925C6 11.5469 6.13527 12.0511 6.4058 12.5051C6.67633 12.9548 7.03849 13.3149 7.49229 13.5856C7.94608 13.8519 8.44787 13.985 8.99766 13.985H10.359V16.0019H8.99766C8.44787 16.0019 7.94608 16.1372 7.49229 16.4079C7.03849 16.6785 6.67633 17.0408 6.4058 17.4949C6.13527 17.9489 6 18.4531 6 19.0075C6 19.5532 6.13527 20.0552 6.4058 20.5136C6.67633 20.9676 7.03849 21.3299 7.49229 21.6006ZM9.67835 20.1796C9.47327 20.3018 9.24638 20.363 8.99766 20.363C8.74895 20.363 8.51987 20.3018 8.31043 20.1796C8.10535 20.0574 7.94172 19.8937 7.81954 19.6885C7.70173 19.4833 7.64282 19.2563 7.64282 19.0075C7.64282 18.7543 7.70391 18.5251 7.82609 18.3199C7.94826 18.1147 8.11189 17.951 8.31697 17.8288C8.52205 17.7022 8.74895 17.6389 8.99766 17.6389H10.359V19.0075C10.359 19.2563 10.298 19.4833 10.1758 19.6885C10.0536 19.8937 9.8878 20.0574 9.67835 20.1796ZM10.359 12.348H8.99766C8.74895 12.348 8.51987 12.2891 8.31043 12.1712C8.10535 12.049 7.94172 11.8853 7.81954 11.6801C7.70173 11.4705 7.64282 11.2413 7.64282 10.9925C7.64282 10.7393 7.70391 10.5123 7.82609 10.3115C7.94826 10.1063 8.11189 9.94263 8.31697 9.82039C8.52205 9.69816 8.74895 9.63704 8.99766 9.63704C9.24638 9.63704 9.47327 9.69816 9.67835 9.82039C9.8878 9.94263 10.0536 10.1063 10.1758 10.3115C10.298 10.5123 10.359 10.7393 10.359 10.9925V12.348ZM17.0089 12.348H15.654V10.9925C15.654 10.7393 15.7129 10.5123 15.8308 10.3115C15.9529 10.1063 16.1166 9.94263 16.3216 9.82039C16.5267 9.69816 16.7558 9.63704 17.0089 9.63704C17.2576 9.63704 17.4845 9.69816 17.6896 9.82039C17.8947 9.94263 18.0561 10.1063 18.1739 10.3115C18.2961 10.5123 18.3572 10.7393 18.3572 10.9925C18.3572 11.2457 18.2961 11.4749 18.1739 11.6801C18.0561 11.8853 17.8947 12.049 17.6896 12.1712C17.4845 12.2891 17.2576 12.348 17.0089 12.348ZM17.6896 20.1796C17.4845 20.3018 17.2576 20.363 17.0089 20.363C16.7558 20.363 16.5267 20.3018 16.3216 20.1796C16.1166 20.0574 15.9529 19.8937 15.8308 19.6885C15.7129 19.4833 15.654 19.2563 15.654 19.0075V17.6389H17.0089C17.2576 17.6389 17.4845 17.7022 17.6896 17.8288C17.8947 17.951 18.0561 18.1147 18.1739 18.3199C18.2961 18.5251 18.3572 18.7543 18.3572 19.0075C18.3572 19.2563 18.2961 19.4833 18.1739 19.6885C18.0561 19.8937 17.8947 20.0574 17.6896 20.1796ZM14.0112 16.0019H12.0019V13.985H14.0112V16.0019ZM22.8915 23.9941L27.1966 8H25.1288L20.8237 23.9941H22.8915Z" fill="black"/>
<path d="M7.49229 21.6006L6.72391 22.8889L6.73312 22.8943L7.49229 21.6006ZM10.503 21.6006L11.2622 22.8943L11.2714 22.8888L10.503 21.6006ZM11.5895 20.5136L10.3031 19.7421L10.301 19.7457L11.5895 20.5136ZM12.0019 17.6389V16.1389C11.1734 16.1389 10.5019 16.8105 10.5019 17.6389H12.0019ZM14.0112 17.6389H15.5112C15.5112 16.8105 14.8396 16.1389 14.0112 16.1389V17.6389ZM14.4105 20.5136L13.1133 21.2668C13.1161 21.2717 13.119 21.2765 13.1219 21.2814L14.4105 20.5136ZM15.497 21.6006L14.7286 22.8889L14.7378 22.8943L15.497 21.6006ZM18.5077 21.6006L19.2723 22.8911L19.2761 22.8888L18.5077 21.6006ZM19.5942 20.5136L20.8828 21.2814L20.886 21.276L19.5942 20.5136ZM18.5077 16.4079L17.7339 17.6928L17.7394 17.6961L18.5077 16.4079ZM15.654 16.0019H14.154C14.154 16.8303 14.8256 17.5019 15.654 17.5019V16.0019ZM15.654 13.985V12.485C14.8256 12.485 14.154 13.1566 14.154 13.985H15.654ZM18.5077 13.5856L19.2723 14.8761L19.2761 14.8739L18.5077 13.5856ZM19.5942 12.5051L20.8795 13.2785L20.8828 13.273L19.5942 12.5051ZM19.5942 9.48644L18.3002 10.2451L18.3056 10.2543L19.5942 9.48644ZM18.5143 8.40599L17.7459 9.69428L17.7551 9.69969L18.5143 8.40599ZM15.497 8.40599L16.2561 9.69972L16.2653 9.69425L15.497 8.40599ZM14.4105 9.48644L13.1219 8.71858L13.1165 8.7278L14.4105 9.48644ZM14.0112 12.348V13.848C14.8396 13.848 15.5112 13.1764 15.5112 12.348H14.0112ZM12.0019 12.348H10.5019C10.5019 13.1764 11.1734 13.848 12.0019 13.848V12.348ZM11.5895 9.48644L10.3009 10.2543L10.3064 10.2633L11.5895 9.48644ZM10.503 8.40599L9.73466 9.69428L9.74388 9.69969L10.503 8.40599ZM7.49229 8.40599L8.25147 9.69972L8.26065 9.69425L7.49229 8.40599ZM6.4058 9.48644L7.69438 10.2543L7.69438 10.2543L6.4058 9.48644ZM6.4058 12.5051L5.11721 13.273L5.1205 13.2785L6.4058 12.5051ZM7.49229 13.5856L6.72391 14.8739L6.73312 14.8793L7.49229 13.5856ZM10.359 13.985H11.859C11.859 13.1566 11.1875 12.485 10.359 12.485V13.985ZM10.359 16.0019V17.5019C11.1875 17.5019 11.859 16.8303 11.859 16.0019H10.359ZM7.49229 16.4079L8.26065 17.6961L8.26065 17.6961L7.49229 16.4079ZM6.4058 17.4949L7.69438 18.2627L7.69438 18.2627L6.4058 17.4949ZM6.4058 20.5136L5.114 21.276L5.11722 21.2814L6.4058 20.5136ZM9.67835 20.1796L8.92225 18.884L8.91038 18.8911L9.67835 20.1796ZM8.31043 20.1796L7.54242 21.4682L7.55436 21.4751L8.31043 20.1796ZM7.81954 19.6885L6.51873 20.4354C6.52268 20.4423 6.52668 20.4491 6.53073 20.4559L7.81954 19.6885ZM7.82609 18.3199L9.1149 19.0874L9.1149 19.0874L7.82609 18.3199ZM8.31697 17.8288L9.08494 19.1173C9.09163 19.1133 9.09828 19.1093 9.1049 19.1052L8.31697 17.8288ZM10.359 17.6389H11.859C11.859 16.8105 11.1875 16.1389 10.359 16.1389V17.6389ZM10.1758 19.6885L11.4646 20.4559L11.4646 20.4559L10.1758 19.6885ZM10.359 12.348V13.848C11.1875 13.848 11.859 13.1764 11.859 12.348H10.359ZM8.31043 12.1712L7.54246 13.4597C7.55315 13.4661 7.56392 13.4723 7.57477 13.4784L8.31043 12.1712ZM7.81954 11.6801L6.51203 12.4152C6.51813 12.4261 6.52436 12.4368 6.53073 12.4475L7.81954 11.6801ZM7.82609 10.3115L9.10755 11.0912C9.11002 11.0871 9.11247 11.083 9.1149 11.0789L7.82609 10.3115ZM8.31697 9.82039L7.549 8.5319L7.549 8.5319L8.31697 9.82039ZM9.67835 9.82039L8.91035 11.1089L8.92228 11.1159L9.67835 9.82039ZM10.1758 10.3115L8.88697 11.0789C8.8894 11.083 8.89185 11.0871 8.89432 11.0912L10.1758 10.3115ZM15.654 12.348H14.154C14.154 13.1764 14.8256 13.848 15.654 13.848V12.348ZM15.8308 10.3115L14.5419 9.54404L14.537 9.55247L15.8308 10.3115ZM16.3216 9.82039L15.5537 8.5319L15.5537 8.5319L16.3216 9.82039ZM17.6896 9.82039L18.4575 8.5319L18.4575 8.5319L17.6896 9.82039ZM18.1739 10.3115L16.8731 11.0584C16.8794 11.0694 16.8859 11.0803 16.8925 11.0912L18.1739 10.3115ZM18.1739 11.6801L16.8851 10.9126C16.881 10.9194 16.8771 10.9263 16.8731 10.9331L18.1739 11.6801ZM17.6896 12.1712L18.437 13.4717C18.4439 13.4677 18.4507 13.4637 18.4575 13.4597L17.6896 12.1712ZM15.8308 19.6885L14.53 20.4354C14.5339 20.4423 14.5379 20.4491 14.542 20.4559L15.8308 19.6885ZM15.654 17.6389V16.1389C14.8256 16.1389 14.154 16.8105 14.154 17.6389H15.654ZM17.6896 17.8288L16.9016 19.1052C16.9083 19.1093 16.9149 19.1133 16.9216 19.1173L17.6896 17.8288ZM18.1739 18.3199L16.8731 19.0669C16.8771 19.0737 16.881 19.0806 16.8851 19.0874L18.1739 18.3199ZM18.1739 19.6885L16.8851 18.9211C16.881 18.9279 16.8771 18.9347 16.8731 18.9416L18.1739 19.6885ZM12.0019 16.0019H10.5019C10.5019 16.8303 11.1734 17.5019 12.0019 17.5019V16.0019ZM14.0112 16.0019V17.5019C14.8396 17.5019 15.5112 16.8303 15.5112 16.0019H14.0112ZM12.0019 13.985V12.485C11.1734 12.485 10.5019 13.1566 10.5019 13.985H12.0019ZM14.0112 13.985H15.5112C15.5112 13.1566 14.8396 12.485 14.0112 12.485V13.985ZM27.1966 8L28.645 8.38988C28.7663 7.93928 28.671 7.4579 28.3871 7.08753C28.1033 6.71717 27.6632 6.5 27.1966 6.5V8ZM22.8915 23.9941V25.4941C23.5698 25.4941 24.1636 25.0389 24.3399 24.384L22.8915 23.9941ZM25.1288 8V6.5C24.4506 6.5 23.8567 6.95516 23.6804 7.61012L25.1288 8ZM20.8237 23.9941L19.3753 23.6042C19.254 24.0548 19.3493 24.5362 19.6332 24.9066C19.917 25.2769 20.3571 25.4941 20.8237 25.4941V23.9941ZM8.99766 20.5C8.70227 20.5 8.4645 20.4319 8.25145 20.3069L6.73312 22.8943C7.42766 23.3018 8.19348 23.5 8.99766 23.5V20.5ZM9.74388 20.3069C9.53083 20.4319 9.29306 20.5 8.99766 20.5V23.5C9.80185 23.5 10.5677 23.3018 11.2622 22.8943L9.74388 20.3069ZM10.301 19.7457C10.1579 19.9858 9.97449 20.1693 9.73468 20.3123L11.2714 22.8888C11.9392 22.4905 12.4801 21.9493 12.8781 21.2814L10.301 19.7457ZM10.5019 19.0075C10.5019 19.2874 10.4352 19.5219 10.3031 19.7421L12.8759 21.285C13.2936 20.5885 13.5019 19.8189 13.5019 19.0075H10.5019ZM10.5019 17.6389V19.0075H13.5019V17.6389H10.5019ZM14.0112 16.1389H12.0019V19.1389H14.0112V16.1389ZM15.5112 19.0075V17.6389H12.5112V19.0075H15.5112ZM15.7076 19.7603C15.5784 19.5377 15.5112 19.2968 15.5112 19.0075H12.5112C12.5112 19.8096 12.7102 20.5727 13.1133 21.2668L15.7076 19.7603ZM16.2653 20.3123C16.0255 20.1693 15.8421 19.9858 15.699 19.7457L13.1219 21.2814C13.5199 21.9493 14.0608 22.4905 14.7286 22.8888L16.2653 20.3123ZM17.0089 20.5C16.7068 20.5 16.4673 20.4308 16.2561 20.3069L14.7378 22.8943C15.4342 23.3029 16.2026 23.5 17.0089 23.5V20.5ZM17.7431 20.3101C17.5375 20.4319 17.3043 20.5 17.0089 20.5V23.5C17.813 23.5 18.5791 23.3018 19.2723 22.891L17.7431 20.3101ZM18.3056 19.7457C18.1626 19.9858 17.9792 20.1693 17.7394 20.3123L19.2761 22.8888C19.9438 22.4905 20.4848 21.9493 20.8828 21.2814L18.3056 19.7457ZM18.5 19.0075C18.5 19.2921 18.4331 19.5298 18.3024 19.7511L20.886 21.276C21.2964 20.5806 21.5 19.8143 21.5 19.0075H18.5ZM18.3056 18.2627C18.4309 18.4729 18.5 18.7096 18.5 19.0075H21.5C21.5 18.1966 21.2986 17.4248 20.8828 16.727L18.3056 18.2627ZM17.7394 17.6961C17.9792 17.8392 18.1626 18.0226 18.3056 18.2627L20.8828 16.727C20.4848 16.0591 19.9438 15.5179 19.2761 15.1196L17.7394 17.6961ZM17.0089 17.5019C17.2996 17.5019 17.5295 17.5697 17.7339 17.6928L19.2816 15.1229C18.5871 14.7047 17.8177 14.5019 17.0089 14.5019V17.5019ZM15.654 17.5019H17.0089V14.5019H15.654V17.5019ZM14.154 13.985V16.0019H17.154V13.985H14.154ZM17.0089 12.485H15.654V15.485H17.0089V12.485ZM17.7431 12.2951C17.5375 12.4169 17.3043 12.485 17.0089 12.485V15.485C17.813 15.485 18.5791 15.2868 19.2723 14.8761L17.7431 12.2951ZM18.3089 11.7318C18.1666 11.9684 17.9826 12.1522 17.7394 12.2973L19.2761 14.8739C19.9404 14.4776 20.4808 13.9412 20.8795 13.2785L18.3089 11.7318ZM18.5 10.9925C18.5 11.2904 18.4309 11.5271 18.3056 11.7373L20.8828 13.273C21.2986 12.5752 21.5 11.8034 21.5 10.9925H18.5ZM18.3056 10.2543C18.432 10.4664 18.5 10.7013 18.5 10.9925H21.5C21.5 10.1837 21.2975 9.41453 20.8828 8.7186L18.3056 10.2543ZM17.7551 9.69969C17.9878 9.83623 18.1636 10.0121 18.3002 10.2451L20.8882 8.7278C20.4924 8.05272 19.9483 7.50833 19.2734 7.11228L17.7551 9.69969ZM17.0089 9.5C17.2996 9.5 17.5341 9.56792 17.7459 9.69425L19.2826 7.11772C18.5868 6.70273 17.8177 6.5 17.0089 6.5V9.5ZM16.2653 9.69425C16.4752 9.56906 16.7115 9.5 17.0089 9.5V6.5C16.198 6.5 15.4263 6.7016 14.7286 7.11772L16.2653 9.69425ZM15.699 10.2543C15.8408 10.0163 16.0213 9.83749 16.2561 9.69969L14.7378 7.11228C14.065 7.50707 13.5212 8.04852 13.1219 8.7186L15.699 10.2543ZM15.5112 10.9925C15.5112 10.6966 15.5794 10.4584 15.7045 10.2451L13.1165 8.7278C12.7092 9.42248 12.5112 10.1883 12.5112 10.9925H15.5112ZM15.5112 12.348V10.9925H12.5112V12.348H15.5112ZM12.0019 13.848H14.0112V10.848H12.0019V13.848ZM10.5019 10.9925V12.348H13.5019V10.9925H10.5019ZM10.3064 10.2633C10.4341 10.4743 10.5019 10.7059 10.5019 10.9925H13.5019C13.5019 10.179 13.2947 9.40662 12.8727 8.70952L10.3064 10.2633ZM9.74388 9.69969C9.9787 9.83749 10.1592 10.0163 10.3009 10.2543L12.8781 8.7186C12.4788 8.04852 11.935 7.50707 11.2622 7.11228L9.74388 9.69969ZM8.99766 9.5C9.28839 9.5 9.52288 9.56792 9.73468 9.69425L11.2714 7.11772C10.5756 6.70273 9.80652 6.5 8.99766 6.5V9.5ZM8.26065 9.69425C8.47245 9.56792 8.70694 9.5 8.99766 9.5V6.5C8.18881 6.5 7.41971 6.70273 6.72392 7.11772L8.26065 9.69425ZM7.69438 10.2543C7.83615 10.0163 8.01662 9.83749 8.25145 9.69969L6.73312 7.11228C6.06036 7.50707 5.5165 8.04852 5.11722 8.7186L7.69438 10.2543ZM7.5 10.9925C7.5 10.7013 7.568 10.4664 7.69438 10.2543L5.11722 8.7186C4.70253 9.41453 4.5 10.1837 4.5 10.9925H7.5ZM7.69438 11.7373C7.56913 11.5271 7.5 11.2904 7.5 10.9925H4.5C4.5 11.8034 4.7014 12.5752 5.11722 13.273L7.69438 11.7373ZM8.26065 12.2973C8.01739 12.1522 7.83341 11.9684 7.69109 11.7318L5.1205 13.2785C5.51925 13.9412 6.05959 14.4776 6.72393 14.8739L8.26065 12.2973ZM8.99766 12.485C8.70227 12.485 8.4645 12.4169 8.25145 12.2919L6.73312 14.8793C7.42766 15.2869 8.19348 15.485 8.99766 15.485V12.485ZM10.359 12.485H8.99766V15.485H10.359V12.485ZM11.859 16.0019V13.985H8.85905V16.0019H11.859ZM8.99766 17.5019H10.359V14.5019H8.99766V17.5019ZM8.26065 17.6961C8.47245 17.5698 8.70694 17.5019 8.99766 17.5019V14.5019C8.18881 14.5019 7.41971 14.7046 6.72392 15.1196L8.26065 17.6961ZM7.69438 18.2627C7.83743 18.0226 8.02083 17.8392 8.26065 17.6961L6.72393 15.1196C6.05615 15.5179 5.51523 16.0591 5.11722 16.727L7.69438 18.2627ZM7.5 19.0075C7.5 18.7096 7.56913 18.4729 7.69438 18.2627L5.11722 16.727C4.7014 17.4248 4.5 18.1966 4.5 19.0075H7.5ZM7.69759 19.7511C7.56693 19.5298 7.5 19.2921 7.5 19.0075H4.5C4.5 19.8142 4.7036 20.5806 5.11401 21.276L7.69759 19.7511ZM8.26065 20.3123C8.02083 20.1693 7.83743 19.9858 7.69438 19.7457L5.11722 21.2814C5.51522 21.9493 6.05615 22.4905 6.72393 22.8888L8.26065 20.3123ZM8.99766 21.863C9.50495 21.863 9.99906 21.7347 10.4463 21.4681L8.91038 18.8911C8.92396 18.883 8.94289 18.8745 8.96424 18.8687C8.98521 18.8631 8.99796 18.863 8.99766 18.863V21.863ZM7.55436 21.4751C7.99934 21.7348 8.49039 21.863 8.99766 21.863V18.863C8.99745 18.863 9.00835 18.8631 9.02598 18.8678C9.04384 18.8726 9.05816 18.8792 9.06649 18.8841L7.55436 21.4751ZM6.53073 20.4559C6.78048 20.8753 7.1231 21.2182 7.54245 21.4681L9.0784 18.8911C9.07838 18.8911 9.08033 18.8923 9.08362 18.8948C9.08694 18.8974 9.0908 18.9007 9.0948 18.9047C9.0988 18.9087 9.10213 18.9126 9.10469 18.9159C9.10723 18.9192 9.10838 18.9211 9.10835 18.921L6.53073 20.4559ZM6.14282 19.0075C6.14282 19.5043 6.26357 19.991 6.51873 20.4354L9.12035 18.9416C9.12751 18.954 9.13445 18.9704 9.13892 18.9876C9.14328 19.0044 9.14282 19.0125 9.14282 19.0075H6.14282ZM6.53728 17.5525C6.26846 18.0039 6.14282 18.5011 6.14282 19.0075H9.14282C9.14282 19.0025 9.14327 19.0124 9.13804 19.032C9.13266 19.0522 9.12419 19.0718 9.1149 19.0874L6.53728 17.5525ZM7.549 16.5403C7.12964 16.7903 6.78702 17.1331 6.53728 17.5525L9.1149 19.0874C9.11493 19.0873 9.11378 19.0892 9.11124 19.0925C9.10868 19.0958 9.10535 19.0997 9.10135 19.1037C9.09735 19.1077 9.09349 19.111 9.09017 19.1136C9.08687 19.1161 9.08493 19.1173 9.08494 19.1173L7.549 16.5403ZM8.99766 16.1389C8.48 16.1389 7.97877 16.2748 7.52904 16.5524L9.1049 19.1052C9.09049 19.1141 9.06926 19.1242 9.04403 19.1312C9.01912 19.1382 9.00194 19.1389 8.99766 19.1389V16.1389ZM10.359 16.1389H8.99766V19.1389H10.359V16.1389ZM11.859 19.0075V17.6389H8.85905V19.0075H11.859ZM11.4646 20.4559C11.7309 20.0086 11.859 19.5146 11.859 19.0075H8.85905C8.85905 19.008 8.85916 18.9954 8.86476 18.9746C8.87047 18.9534 8.87893 18.9346 8.88697 18.9211L11.4646 20.4559ZM10.4344 21.4751C10.8597 21.2269 11.2103 20.8829 11.4646 20.4559L8.88697 18.9211C8.8895 18.9168 8.89585 18.9077 8.90593 18.8977C8.91593 18.8879 8.92301 18.8837 8.92228 18.8841L10.4344 21.4751ZM8.99766 13.848H10.359V10.848H8.99766V13.848ZM7.57477 13.4784C8.01682 13.7272 8.5006 13.848 8.99766 13.848V10.848C8.99289 10.848 8.99937 10.8476 9.01305 10.8511C9.027 10.8547 9.03885 10.8599 9.04608 10.864L7.57477 13.4784ZM6.53073 12.4475C6.78047 12.8669 7.12309 13.2097 7.54246 13.4597L9.07839 10.8827C9.07838 10.8827 9.08033 10.8839 9.08362 10.8864C9.08694 10.889 9.0908 10.8923 9.0948 10.8963C9.0988 10.9003 9.10213 10.9042 9.10469 10.9075C9.10723 10.9108 9.10838 10.9127 9.10835 10.9126L6.53073 12.4475ZM6.14282 10.9925C6.14282 11.4894 6.26348 11.9731 6.51203 12.4152L9.12705 10.9449C9.13107 10.9521 9.13624 10.9638 9.13978 10.9776C9.14326 10.9912 9.14282 10.9975 9.14282 10.9925H6.14282ZM6.54463 9.53185C6.26848 9.98573 6.14282 10.4863 6.14282 10.9925H9.14282C9.14282 10.9875 9.14329 10.9992 9.13711 11.0222C9.13073 11.0459 9.12032 11.0702 9.10755 11.0912L6.54463 9.53185ZM7.549 8.5319C7.12964 8.78185 6.78702 9.12466 6.53728 9.54406L9.1149 11.0789C9.11493 11.0789 9.11378 11.0808 9.11124 11.0841C9.10868 11.0874 9.10535 11.0913 9.10135 11.0953C9.09735 11.0993 9.09349 11.1026 9.09017 11.1052C9.08687 11.1077 9.08493 11.1089 9.08494 11.1089L7.549 8.5319ZM8.99766 8.13704C8.49038 8.13704 7.99626 8.26532 7.549 8.5319L9.08494 11.1089C9.07136 11.117 9.05244 11.1255 9.03108 11.1313C9.01011 11.1369 8.99737 11.137 8.99766 11.137V8.13704ZM10.4463 8.5319C9.99906 8.26532 9.50495 8.13704 8.99766 8.13704V11.137C8.99796 11.137 8.98522 11.1369 8.96424 11.1313C8.94289 11.1255 8.92396 11.117 8.91038 11.1089L10.4463 8.5319ZM11.4646 9.54406C11.2103 9.11707 10.8597 8.7731 10.4344 8.52488L8.92228 11.1159C8.92301 11.1163 8.91593 11.1121 8.90593 11.1023C8.89585 11.0923 8.8895 11.0832 8.88697 11.0789L11.4646 9.54406ZM11.859 10.9925C11.859 10.4863 11.7334 9.98573 11.4572 9.53185L8.89432 11.0912C8.88155 11.0702 8.87114 11.0459 8.86476 11.0222C8.85858 10.9992 8.85905 10.9875 8.85905 10.9925H11.859ZM11.859 12.348V10.9925H8.85905V12.348H11.859ZM15.654 13.848H17.0089V10.848H15.654V13.848ZM14.154 10.9925V12.348H17.154V10.9925H14.154ZM14.537 9.55247C14.2724 10.0034 14.154 10.4966 14.154 10.9925H17.154C17.154 10.983 17.155 10.9902 17.1501 11.0091C17.145 11.0288 17.1363 11.0506 17.1245 11.0705L14.537 9.55247ZM15.5537 8.5319C15.1343 8.78185 14.7917 9.12466 14.542 9.54406L17.1196 11.079C17.1196 11.0789 17.1185 11.0808 17.1159 11.0841C17.1134 11.0874 17.11 11.0913 17.106 11.0953C17.102 11.0993 17.0982 11.1026 17.0948 11.1052C17.0915 11.1077 17.0896 11.1089 17.0896 11.1089L15.5537 8.5319ZM17.0089 8.13704C16.5023 8.13704 16.0051 8.26284 15.5537 8.5319L17.0896 11.1089C17.0739 11.1182 17.0543 11.1268 17.0339 11.1322C17.0141 11.1375 17.0041 11.137 17.0089 11.137V8.13704ZM18.4575 8.5319C18.0103 8.26532 17.5162 8.13704 17.0089 8.13704V11.137C17.0092 11.137 16.9964 11.1369 16.9755 11.1313C16.9541 11.1255 16.9352 11.117 16.9216 11.1089L18.4575 8.5319ZM19.4747 9.56458C19.2275 9.13403 18.8817 8.78469 18.4575 8.5319L16.9216 11.1089C16.9187 11.1072 16.9087 11.1005 16.8965 11.0881C16.8842 11.0756 16.8765 11.0643 16.8731 11.0584L19.4747 9.56458ZM19.8572 10.9925C19.8572 10.4863 19.7315 9.98574 19.4554 9.53185L16.8925 11.0912C16.8797 11.0702 16.8693 11.0459 16.8629 11.0222C16.8567 10.9992 16.8572 10.9875 16.8572 10.9925H19.8572ZM19.4627 12.4475C19.7315 11.9961 19.8572 11.4989 19.8572 10.9925H16.8572C16.8572 10.9975 16.8567 10.9876 16.862 10.968C16.8673 10.9478 16.8758 10.9282 16.8851 10.9126L19.4627 12.4475ZM18.4575 13.4597C18.8817 13.2069 19.2275 12.8575 19.4747 12.427L16.8731 10.9331C16.8765 10.9273 16.8842 10.916 16.8965 10.9035C16.9087 10.891 16.9188 10.8844 16.9216 10.8827L18.4575 13.4597ZM17.0089 13.848C17.5059 13.848 17.9927 13.7271 18.437 13.4717L16.9421 10.8707C16.9547 10.8635 16.9711 10.8565 16.9885 10.852C17.0055 10.8476 17.0137 10.848 17.0089 10.848V13.848ZM17.0089 21.863C17.5162 21.863 18.0103 21.7347 18.4575 21.4681L16.9216 18.8911C16.9352 18.883 16.9541 18.8745 16.9755 18.8687C16.9964 18.8631 17.0092 18.863 17.0089 18.863V21.863ZM15.5537 21.4681C16.0051 21.7372 16.5023 21.863 17.0089 21.863V18.863C17.0041 18.863 17.0141 18.8625 17.0339 18.8678C17.0543 18.8732 17.0739 18.8818 17.0896 18.8911L15.5537 21.4681ZM14.542 20.4559C14.7917 20.8753 15.1343 21.2182 15.5537 21.4681L17.0896 18.8911C17.0896 18.8911 17.0915 18.8923 17.0948 18.8948C17.0982 18.8974 17.102 18.9007 17.106 18.9047C17.11 18.9087 17.1134 18.9126 17.1159 18.9159C17.1185 18.9192 17.1196 18.9211 17.1196 18.921L14.542 20.4559ZM14.154 19.0075C14.154 19.5043 14.2748 19.991 14.53 20.4354L17.1316 18.9416C17.1387 18.954 17.1457 18.9704 17.1501 18.9876C17.1545 19.0044 17.154 19.0125 17.154 19.0075H14.154ZM14.154 17.6389V19.0075H17.154V17.6389H14.154ZM17.0089 16.1389H15.654V19.1389H17.0089V16.1389ZM18.4775 16.5524C18.0278 16.2748 17.5265 16.1389 17.0089 16.1389V19.1389C17.0046 19.1389 16.9874 19.1382 16.9625 19.1312C16.9373 19.1242 16.9161 19.1141 16.9016 19.1052L18.4775 16.5524ZM19.4747 17.573C19.2275 17.1425 18.8817 16.7931 18.4575 16.5403L16.9216 19.1173C16.9188 19.1156 16.9087 19.109 16.8965 19.0965C16.8842 19.0841 16.8765 19.0727 16.8731 19.0669L19.4747 17.573ZM19.8572 19.0075C19.8572 18.5011 19.7315 18.0039 19.4627 17.5525L16.8851 19.0874C16.8758 19.0718 16.8673 19.0522 16.862 19.032C16.8567 19.0124 16.8572 19.0025 16.8572 19.0075H19.8572ZM19.4627 20.4559C19.7291 20.0086 19.8572 19.5146 19.8572 19.0075H16.8572C16.8572 19.008 16.8573 18.9954 16.8629 18.9746C16.8686 18.9534 16.8771 18.9346 16.8851 18.9211L19.4627 20.4559ZM18.4575 21.4681C18.8817 21.2153 19.2275 20.866 19.4747 20.4354L16.8731 18.9416C16.8765 18.9357 16.8842 18.9244 16.8965 18.9119C16.9087 18.8995 16.9188 18.8928 16.9216 18.8911L18.4575 21.4681ZM12.0019 17.5019H14.0112V14.5019H12.0019V17.5019ZM10.5019 13.985V16.0019H13.5019V13.985H10.5019ZM14.0112 12.485H12.0019V15.485H14.0112V12.485ZM15.5112 16.0019V13.985H12.5112V16.0019H15.5112ZM25.7481 7.61012L21.443 23.6042L24.3399 24.384L28.645 8.38988L25.7481 7.61012ZM25.1288 9.5H27.1966V6.5H25.1288V9.5ZM22.2722 24.384L26.5773 8.38988L23.6804 7.61012L19.3753 23.6042L22.2722 24.384ZM22.8915 22.4941H20.8237V25.4941H22.8915V22.4941Z" fill="white" fill-opacity="0.5" mask="url(#path-3-outside-1_214_36)"/>
<defs>
<radialGradient id="paint0_angular_214_36" cx="0" cy="0" r="1" gradientUnits="userSpaceOnUse" gradientTransform="translate(16 16) rotate(155.966) scale(15.9396)">
<stop stop-color="#FF0000"/>
<stop offset="0.121014" stop-color="#FF8A00"/>
<stop offset="0.25191" stop-color="#FAFF00"/>
<stop offset="0.375386" stop-color="#00FF85"/>
<stop offset="0.494206" stop-color="#00E0FF"/>
<stop offset="0.625742" stop-color="#0066FF"/>
<stop offset="0.748001" stop-color="#9E00FF"/>
<stop offset="0.866175" stop-color="#FF00B8"/>
<stop offset="1" stop-color="#FF0000"/>
</radialGradient>
<radialGradient id="paint1_radial_214_36" cx="0" cy="0" r="1" gradientUnits="userSpaceOnUse" gradientTransform="translate(12.9381 16) scale(19.0619 20.3358)">
<stop offset="0.119792" stop-color="white"/>
<stop offset="0.619792" stop-color="white" stop-opacity="0"/>
</radialGradient>
</defs>
</svg>
